<svg viewBox="0 0 24 44" fill="none" xmlns="http://www.w3.org/2000/svg">
<path d="M21 0C9.42053 0 0 10.3177 0 23C0 35.6823 9.42053 46 21 46C32.5795 46 42 35.6823 42 23C42 10.3177 32.5795 0 21 0ZM34.8846 10.6065C37.3828 13.9495 38.8956 18.2074 38.9351 22.8443C38.3437 22.7073 32.4134 21.3899 26.445 22.212C25.9579 20.9098 25.4982 19.7642 24.8686 18.3526C31.5006 15.387 34.5064 11.1668 34.8846 10.6065ZM32.8905 8.33472C32.5679 8.83803 29.8678 12.8129 23.4895 15.4312C20.5502 9.51653 17.2924 4.65759 16.7966 3.9305C22.4849 2.42873 28.4792 4.04828 32.8905 8.33472ZM13.374 5.25105C13.847 5.96136 17.0523 10.8263 20.0243 16.6128C11.6339 19.0531 4.24386 19.0179 3.44163 19.0063C4.60476 12.9101 8.3558 7.84346 13.374 5.25105ZM3.06278 23.03C3.06278 22.8291 3.06642 22.6291 3.07193 22.4296C3.85672 22.4473 12.549 22.57 21.5067 19.6338C22.0202 20.7345 22.5107 21.8518 22.961 22.9678C16.4748 24.9687 10.5816 30.7143 7.67406 36.1656C4.80917 32.6827 3.06278 28.0758 3.06278 23.03ZM9.98999 38.5283C11.8636 34.3333 16.9486 28.9182 24.1801 26.2163C26.6985 33.3837 27.7399 39.3906 28.0066 41.1142C22.2391 43.8049 15.3038 43.0667 9.98999 38.5283ZM31.0222 39.3156C30.8383 38.1206 29.8836 32.3695 27.5375 25.3085C33.1584 24.3231 38.0968 25.9362 38.7105 26.1483C37.9109 31.6146 35.0462 36.3355 31.0222 39.3156Z" /></svg>