<svg role="img" viewBox="0 0 24 24" fill="none" xmlns="http://www.w3.org/2000/svg">
<path d="M9.84893 42H0.726786V13.9587H9.84893V42ZM5.28295 10.1337C2.36598 10.1337 0 7.82736 0 5.04292C2.08784e-08 3.70546 0.556595 2.42277 1.54734 1.47704C2.53808 0.531307 3.88182 0 5.28295 0C6.68407 0 8.02781 0.531307 9.01855 1.47704C10.0093 2.42277 10.5659 3.70546 10.5659 5.04292C10.5659 7.82736 8.19893 10.1337 5.28295 10.1337ZM43.9902 42H34.8877V28.3497C34.8877 25.0965 34.8189 20.9245 30.1449 20.9245C25.4021 20.9245 24.6754 24.459 24.6754 28.1153V42H15.563V13.9587H24.312V17.7838H24.4396C25.6575 15.5807 28.6324 13.2556 33.0707 13.2556C42.3029 13.2556 44 19.0589 44 26.5965V42H43.9902Z" /></svg>
