<svg width="47" height="42" viewBox="0 0 47 42" fill="none" xmlns="http://www.w3.org/2000/svg">
<path d="M42.1689 10.4671C42.1987 10.9265 42.1987 11.386 42.1987 11.8453C42.1987 25.8562 32.5065 42 14.7919 42C9.3344 42 4.26462 40.2609 0 37.2422C0.775411 37.3406 1.5209 37.3734 2.32614 37.3734C6.82926 37.3734 10.9746 35.7001 14.2849 32.8454C10.0501 32.7469 6.50126 29.6953 5.27852 25.4953C5.87502 25.5937 6.47143 25.6593 7.09776 25.6593C7.96258 25.6593 8.8275 25.528 9.63265 25.2985C5.21895 24.314 1.90856 20.0484 1.90856 14.8969V14.7657C3.19087 15.5532 4.68212 16.0453 6.26259 16.1109C3.66803 14.2077 1.96822 10.9593 1.96822 7.2843C1.96822 5.31559 2.44529 3.5109 3.28037 1.93589C8.02216 8.36713 15.1498 12.5671 23.1421 13.0265C22.993 12.239 22.9035 11.4188 22.9035 10.5985C22.9035 4.75776 27.198 0 32.5362 0C35.3096 0 37.8147 1.27968 39.5742 3.34687C41.7512 2.88752 43.8388 2.00154 45.6879 0.787506C44.972 3.2485 43.4511 5.31569 41.4531 6.6281C43.3915 6.39852 45.2704 5.80777 47 4.98754C45.688 7.08745 44.0477 8.95769 42.1689 10.4671Z" fill="black"/>
</svg>
