<svg id="Layer_1" data-name="Layer 1" xmlns="http://www.w3.org/2000/svg" xmlns:xlink="http://www.w3.org/1999/xlink" viewBox="0 0 354.78 354.78"><defs><style>.cls-1{fill:none;stroke-miterlimit:10;stroke-width:13px;stroke:url(#linear-gradient);}.cls-2{fill:#dd0040;}.cls-3{fill:#b70034;}</style><linearGradient id="linear-gradient" y1="177.39" x2="354.78" y2="177.39" gradientUnits="userSpaceOnUse"><stop offset="0" stop-color="#dd0040"/><stop offset="1" stop-color="#b70034"/></linearGradient></defs><rect class="cls-1" x="6.5" y="6.5" width="341.78" height="341.78"/><path class="cls-2" d="M71.83,63.48h8.49l16.7,71H86L76.07,83l-10,51.51h-11Zm-5.67,47.71H86.38v10H66.16Z" transform="translate(-22.61 -22.61)"/><path class="cls-2" d="M151.61,72.81l-18.36,51.46H152.1v10.21h-30v-9.33l18.56-51.46H123V63.48h28.66Z" transform="translate(-22.61 -22.61)"/><path class="cls-2" d="M179.35,63.48h10.74v71H179.35Zm5.12,0H210.4V73.79H184.47Zm0,30.62H208v10.25H184.47Zm0,30.08H210.4v10.3H184.47Z" transform="translate(-22.61 -22.61)"/><path class="cls-2" d="M237.26,63.48H248v71H237.26Zm5.12,0h25.93V73.79H242.38Zm0,30.62h23.49v10.25H242.38Zm0,30.08h25.93v10.3H242.38Z" transform="translate(-22.61 -22.61)"/><path class="cls-2" d="M331.69,63.48h9.77v71h-9.67V82.82l.78,3.12-11.23,36.48h-6.06l-11.23-35.5,1.08-4.1v51.66h-10v-71h10.1l13,41.6Z" transform="translate(-22.61 -22.61)"/><path class="cls-3" d="M69.9,269.24h8.49l16.7,71h-11l-10-51.51-10,51.51h-11Zm-5.67,47.7H84.45v10H64.23Z" transform="translate(-22.61 -22.61)"/><path class="cls-3" d="M121,269.24h10.74v71H121Zm6.4,60.93h11.18a5.87,5.87,0,0,0,4.2-1.39,5.07,5.07,0,0,0,1.46-3.88v-9.37a9.44,9.44,0,0,0-.7-3.84,5.3,5.3,0,0,0-2.08-2.41,6,6,0,0,0-3.22-.83H127.37v-10h10.69a4.8,4.8,0,0,0,3.93-1.69,7.34,7.34,0,0,0,1.39-4.81v-7.42a4.74,4.74,0,0,0-5.22-5.22H127.37V269.24h11.28a18.88,18.88,0,0,1,8.3,1.68,11.72,11.72,0,0,1,5.27,4.93,15.74,15.74,0,0,1,1.81,7.79v7.57a13.67,13.67,0,0,1-1.17,5.83,10.7,10.7,0,0,1-3.32,4.13,12.44,12.44,0,0,1-5.23,2.2,13,13,0,0,1,5.74,2.15,10.86,10.86,0,0,1,3.64,4.32,14.39,14.39,0,0,1,1.27,6.22v9.52a16.35,16.35,0,0,1-1.79,7.92,11.9,11.9,0,0,1-5.15,5,17.56,17.56,0,0,1-8.15,1.73h-12.5Z" transform="translate(-22.61 -22.61)"/><path class="cls-3" d="M183,269.24h10.74v71H183Zm6.4,60.93h11.18a5.87,5.87,0,0,0,4.2-1.39,5.07,5.07,0,0,0,1.46-3.88v-9.37a9.44,9.44,0,0,0-.7-3.84,5.3,5.3,0,0,0-2.08-2.41,6,6,0,0,0-3.22-.83H189.43v-10h10.69a4.79,4.79,0,0,0,3.93-1.69,7.34,7.34,0,0,0,1.39-4.81v-7.42a4.74,4.74,0,0,0-5.22-5.22H189.43V269.24h11.28a18.88,18.88,0,0,1,8.3,1.68,11.72,11.72,0,0,1,5.27,4.93,15.74,15.74,0,0,1,1.81,7.79v7.57a13.67,13.67,0,0,1-1.17,5.83,10.7,10.7,0,0,1-3.32,4.13,12.44,12.44,0,0,1-5.23,2.2,13,13,0,0,1,5.74,2.15,10.86,10.86,0,0,1,3.64,4.32,14.39,14.39,0,0,1,1.27,6.22v9.52a16.35,16.35,0,0,1-1.79,7.92,11.9,11.9,0,0,1-5.15,5,17.56,17.56,0,0,1-8.15,1.73h-12.5Z" transform="translate(-22.61 -22.61)"/><path class="cls-3" d="M258.37,269.24h8.5l16.7,71h-11l-10-51.51-10,51.51h-11Zm-5.66,47.7h20.21v10H252.71Z" transform="translate(-22.61 -22.61)"/><path class="cls-3" d="M316.8,339a13.77,13.77,0,0,1-6-5.81,18.85,18.85,0,0,1-2-9.27v-3.67l10.65-.09v3.51a6.25,6.25,0,0,0,6.88,6.89,6.53,6.53,0,0,0,4.91-1.79,6.91,6.91,0,0,0,1.73-5.05v-6.2a6.49,6.49,0,0,0-1.17-3.91,10.19,10.19,0,0,0-3-2.71q-1.83-1.1-5-2.61l-.29-.12a1.78,1.78,0,0,0-.29-.12l-.64-.3a47.11,47.11,0,0,1-7-4.1,16.52,16.52,0,0,1-4.76-5.56,18.2,18.2,0,0,1-1.93-8.79V285.4a19.33,19.33,0,0,1,2-9.18,13.27,13.27,0,0,1,5.93-5.76,21,21,0,0,1,9.43-2,19.75,19.75,0,0,1,9.22,2,13.27,13.27,0,0,1,5.79,5.81,20.48,20.48,0,0,1,2,9.26v3.85l-10.7.1v-3.66a7.27,7.27,0,0,0-1.66-5.15,6.07,6.07,0,0,0-4.68-1.78,6.79,6.79,0,0,0-5,1.68,6.25,6.25,0,0,0-1.71,4.66v4.59a6.91,6.91,0,0,0,1.14,4,9.43,9.43,0,0,0,2.91,2.71c1.17.7,2.78,1.53,4.83,2.51.3.13.58.27.86.42l.85.46.34.12a2.28,2.28,0,0,1,.35.17,48.66,48.66,0,0,1,6.69,3.81,15,15,0,0,1,4.34,5.1,17.51,17.51,0,0,1,1.81,8.48v6.2a19.83,19.83,0,0,1-2,9.32,13.4,13.4,0,0,1-5.91,5.84,23.36,23.36,0,0,1-18.89,0Z" transform="translate(-22.61 -22.61)"/></svg>