<?xml version="1.0" encoding="utf-8"?>
<!-- Generator: Adobe Illustrator 21.0.0, SVG Export Plug-In . SVG Version: 6.00 Build 0)  -->
<svg version="1.1" id="Layer_1" xmlns="http://www.w3.org/2000/svg" xmlns:xlink="http://www.w3.org/1999/xlink" x="0px" y="0px"
	 viewBox="0 0 478 226" style="enable-background:new 0 0 478 226;" xml:space="preserve">
<style type="text/css">
	.st0{fill:url(#SVGID_1_);}
	.st1{fill:none;stroke:url(#SVGID_2_);stroke-width:10;stroke-miterlimit:10;}
	.st2{fill:none;stroke:url(#SVGID_3_);stroke-width:10;stroke-miterlimit:10;}
	.st3{font-family:'Poppins-SemiBold';}
	.st4{font-size:256px;}
	.st5{fill:url(#SVGID_4_);}
</style>
<linearGradient id="SVGID_1_" gradientUnits="userSpaceOnUse" x1="374" y1="168" x2="454" y2="168">
	<stop  offset="0" style="stop-color:#B70034"/>
	<stop  offset="1" style="stop-color:#DD0040"/>
</linearGradient>
<circle class="st0" cx="414" cy="168" r="40"/>
<g>
	<g>
		<g>
			<linearGradient id="SVGID_2_" gradientUnits="userSpaceOnUse" x1="196.0205" y1="131.7463" x2="352.0967" y2="131.7463">
				<stop  offset="0" style="stop-color:#B70034"/>
				<stop  offset="1" style="stop-color:#DD0040"/>
			</linearGradient>
			<path class="st1" d="M311.4,81.6c-4.7-6.4-11-11.7-18.9-15.9c-7.8-4.2-17-6.3-27.5-6.3c-12,0-22.8,3-32.5,8.9
				c-9.7,5.9-17.4,14.3-23,25.3c-5.7,11-8.5,23.5-8.5,37.7c0,14.3,2.8,27,8.5,38.1c5.7,11.1,13.3,19.6,23,25.7
				c9.7,6.1,20.5,9.1,32.3,9.1c10.5,0,19.7-2.2,27.7-6.5c8-4.3,14.3-9.7,18.9-16.3v20.5h35.7V61.6h-35.7V81.6z M311.9,62.1h34.7
				v139.3h-34.7v-21.6l-0.9,1.3c-8.3,12-24.1,22.6-46.2,22.6c-17.6,0-33.4-7.2-44.8-19.9c-11.4-12.7-18.5-30.8-18.5-52.5
				c0-21.8,7.1-39.6,18.5-52c11.5-12.4,27.3-19.4,45-19.4c22.4,0,37.6,10.5,45.9,22.1l0.9,1.3V62.1z"/>
			<linearGradient id="SVGID_3_" gradientUnits="userSpaceOnUse" x1="231.7227" y1="131.7485" x2="316.8984" y2="131.7485">
				<stop  offset="0" style="stop-color:#B70034"/>
				<stop  offset="1" style="stop-color:#DD0040"/>
			</linearGradient>
			<path class="st2" d="M274.2,90c-9.6,0-19,3.6-26,10.6c-7,7-11.5,17.3-11.5,30.7c0,13.4,4.5,24,11.5,31.2c7,7.2,16.3,11.1,26,11.1
				c9.9,0,19.3-3.7,26.3-10.8c7-7.1,11.4-17.6,11.4-31c0-13.4-4.5-23.9-11.4-31C293.5,93.7,284.1,90,274.2,90z M311.4,131.7
				c0,8.6-1.7,16-5.1,22.2c-3.4,6.2-7.9,10.9-13.7,14.2c-5.7,3.3-11.9,4.9-18.5,4.9c-6.4,0-12.4-1.7-18.1-5.1
				c-5.7-3.4-10.2-8.2-13.7-14.6c-3.5-6.3-5.2-13.7-5.2-22.2c0-8.4,1.7-15.7,5.2-21.9c3.5-6.2,8-10.8,13.5-14.1
				c5.6-3.2,11.6-4.8,18.2-4.8c6.6,0,12.7,1.6,18.5,4.9c5.7,3.3,10.3,8,13.7,14.2C309.7,115.8,311.4,123.1,311.4,131.7z"/>
		</g>
	</g>
</g>
<g>
	<g>
		<linearGradient id="SVGID_4_" gradientUnits="userSpaceOnUse" x1="21.9893" y1="112.5291" x2="192.2266" y2="112.5291">
			<stop  offset="0" style="stop-color:#B70034"/>
			<stop  offset="1" style="stop-color:#DD0040"/>
		</linearGradient>
		<path class="st5" d="M142.6,168H71.4l-11.8,34H22L86.2,23.1H128L192.2,202h-37.9L142.6,168z M107,64.5l-25.9,74.8h51.7L107,64.5z"
			/>
	</g>
</g>
</svg>
